{"title":"Pandemic 2016 BluRay 720p H264 AAC [ITRG][IndexTorrent]","uid":14647236,"size":1270193048,"categoryP":"video","categoryS":"hd___movies","magnet":"?xt=urn:btih:3543a5fde49223fa13ac455f2e3b06120ed67b7a&amp;dn=Pandemic+2016+BluRay+720p+H264+AAC+%5BITRG%5D%5BIndexTorrent%5D&amp;tr=udp%3A%2F%2Ftracker.leechers-paradise.org%3A6969&amp;tr=udp%3A%2F%2Fzer0day.ch%3A1337&amp;tr=udp%3A%2F%2Fopen.demonii.com%3A1337&amp;tr=udp%3A%2F%2Ftracker.coppersurfer.tk%3A6969&amp;tr=udp%3A%2F%2Fexodus.desync.com%3A6969","seeders":0,"leechers":1,"uploader":"ITRG","files":5,"time":1463603782,"description":"screen shots \nhttp://extraimago.com/images/2016/05/18/101b34.jpg \nhttp://extraimago.com/images/2016/05/18/2b1e70.jpg \nhttp://extraimago.com/images/2016/05/18/319800.jpg\r\n\r\nGeneral\r\nUnique ID                   : 63750043326350591255585354978985672578 (0x2FF5CFCE2E4CBC6CCB860F0783EE7F82)\r\nComplete name               : C:BDConvertedPandemic 2016 BluRay .mkvPandemic 2016 BluRay 720p H264 AAC [ITRG][IndexTorrent.com].mkvPandemic 2016 BluRay 720p H264 AAC [ITRG][IndexTorrent.com].mkv\r\nFormat                      : Matroska\r\nFormat version              : Version 2\r\nFile size                   : 1.18 GiB\r\nDuration                    : 1h 32mn\r\nOverall bit rate            : 1 840 Kbps\r\nEncoded date                : UTC 2016-05-13T14:38:22Z\r\nWriting application         : HandBrake 0.10.3 2016012200\r\nWriting library             : Lavf55.12.0 / Lavf55.12.0\r\n\r\nVideo\r\nID                          : 1\r\nFormat                      : AVC\r\nFormat/Info                 : Advanced Video Codec\r\nFormat profile              :   \r\nFormat settings, CABAC      : Yes\r\nFormat settings, ReFrames   : 4 frames\r\nCodec ID                    : V_MPEG4/ISO/AVC\r\nDuration                    : 1h 32mn\r\nBit rate                    : 1 707 Kbps\r\nNominal bit rate            : 1 800 Kbps\r\nWidth                       : 260 pixels\r\nHeight                      : 532 pixels\r\nDisplay aspect ratio        : 0.489\r\nFrame rate mode             : Constant\r\nFrame rate                  : 23.976 (24000/1001) fps\r\nColor space                 : YUV\r\nChroma subsampling          : 4:2:0\r\nBit depth                   : 8 bits\r\nScan type                   : Progressive\r\nBits/(Pixel*Frame)          : 0.515\r\nStream size                 : 1.10 GiB (93%)\r\n\r\nDefault                     : Yes\r\nForced                      : No\r\nColor range                 : Limited\r\nColor primaries             : BT.709\r\nTransfer characteristics    : BT.709\r\nMatrix coefficients         : BT.709\r\n\r\nAudio\r\nID                          : 2\r\nFormat                      : AC-3\r\nFormat/Info                 : Audio Coding 3\r\nMode extension              : CM (complete main)\r\nFormat settings, Endianness : Big\r\nCodec ID                    : A_AC3\r\nDuration                    : 1h 32mn\r\nBit rate mode               : Constant\r\nBit rate                    : 96.0 Kbps\r\nChannel(s)                  : 2 channels\r\nChannel positions           : Front: L R\r\nSampling rate               : 48.0 KHz\r\nFrame rate                  : 31.250 fps (1536 spf)\r\nCompression mode            : Lossy\r\nDelay relative to video     : -5ms\r\nStream size                 : 63.2 MiB (5%)\r\nTitle                       : Stereo\r\nLanguage                    : German\r\nDefault                     : Yes\r\nForced                      : No","torrent":{"xt":"urn:btih:3543a5fde49223fa13ac455f2e3b06120ed67b7a","amp;dn":"Pandemic+2016+BluRay+720p+H264+AAC+%5BITRG%5D%5BIndexTorrent%5D","amp;tr":["udp%3A%2F%2Ftracker.leechers-paradise.org%3A6969","udp%3A%2F%2Fzer0day.ch%3A1337","udp%3A%2F%2Fopen.demonii.com%3A1337","udp%3A%2F%2Ftracker.coppersurfer.tk%3A6969","udp%3A%2F%2Fexodus.desync.com%3A6969"],"infoHash":"3543a5fde49223fa13ac455f2e3b06120ed67b7a","infoHashBuffer":{"type":"Buffer","data":[53,67,165,253,228,146,35,250,19,172,69,95,46,59,6,18,14,214,123,122]},"announce":[],"urlList":[]}}